<mxfile host="drawio-plugin" modified="2024-01-08T19:52:36.602Z" agent="5.0 (Windows NT 10.0; Win64; x64) AppleWebKit/537.36 (KHTML, like Gecko) Chrome/111.0.0.0 Safari/537.36" version="20.5.3" etag="XDqICckDOCYQcqDjLJ4l" type="embed"><diagram name="Страница — 1" id="T18cRzlh9-x9jbsWsDvP"><mxGraphModel dx="1143" dy="1927" grid="1" gridSize="10" guides="1" tooltips="1" connect="1" arrows="1" fold="1" page="1" pageScale="1" pageWidth="827" pageHeight="1169" math="0" shadow="0"><root><mxCell id="0"/><mxCell id="1" parent="0"/><mxCell id="5" value="V8&lt;br&gt;JavaScrippt VM" style="swimlane;whiteSpace=wrap;html=1;startSize=40;" parent="1" vertex="1"><mxGeometry x="40" y="160" width="300" height="390" as="geometry"/></mxCell><mxCell id="6" value="HEAP&lt;br&gt;Глобальный контекст" style="swimlane;whiteSpace=wrap;html=1;startSize=40;" parent="5" vertex="1"><mxGeometry x="10" y="50" width="140" height="330" as="geometry"/></mxCell><mxCell id="9" value="Глобальные функции&lt;br&gt;глоальные переменные" style="text;html=1;strokeColor=none;fillColor=none;align=center;verticalAlign=middle;whiteSpace=wrap;rounded=0;" parent="6" vertex="1"><mxGeometry x="10" y="60" width="120" height="60" as="geometry"/></mxCell><mxCell id="7" value="CALL STACK&lt;br&gt;Стек вызовов" style="swimlane;whiteSpace=wrap;html=1;startSize=40;" parent="5" vertex="1"><mxGeometry x="160" y="50" width="130" height="330" as="geometry"/></mxCell><mxCell id="8" value="LIFO" style="text;html=1;strokeColor=none;fillColor=none;align=center;verticalAlign=middle;whiteSpace=wrap;rounded=0;" parent="7" vertex="1"><mxGeometry x="80" y="40" width="60" height="30" as="geometry"/></mxCell><mxCell id="13" style="edgeStyle=none;html=1;exitX=0;exitY=0.5;exitDx=0;exitDy=0;" parent="1" source="10" edge="1"><mxGeometry relative="1" as="geometry"><mxPoint x="340" y="360" as="targetPoint"/></mxGeometry></mxCell><mxCell id="10" value="EVENT QUEUE&lt;br&gt;Очередь задач" style="swimlane;whiteSpace=wrap;html=1;startSize=30;" parent="1" vertex="1"><mxGeometry x="370" y="310" width="430" height="100" as="geometry"/></mxCell><mxCell id="17" value="2" style="text;html=1;strokeColor=none;fillColor=none;align=center;verticalAlign=middle;whiteSpace=wrap;rounded=0;" parent="10" vertex="1"><mxGeometry y="30" width="60" height="30" as="geometry"/></mxCell><mxCell id="19" value="&lt;b style=&quot;font-size: 12px;&quot;&gt;&lt;span style=&quot;font-family: -apple-system, BlinkMacSystemFont, Arial, sans-serif;&quot;&gt;Из&amp;nbsp;&lt;/span&gt;&lt;span style=&quot;transition: opacity 0.2s ease-in-out 0s, color 0.2s ease-in-out 0s, text-decoration 0.2s ease-in-out 0s, background-color 0.2s ease-in-out 0s, -webkit-text-decoration 0.2s ease-in-out 0s; quotes: &amp;quot;«&amp;quot; &amp;quot;»&amp;quot;; -webkit-font-smoothing: antialiased; font-family: -apple-system, BlinkMacSystemFont, Arial, sans-serif;&quot;&gt;очереди задач&lt;/span&gt;&lt;/b&gt;&lt;span style=&quot;font-family: -apple-system, BlinkMacSystemFont, Arial, sans-serif;&quot;&gt;&amp;nbsp;движок выполняет, как правило, одно или несколько заданий, стараясь уложиться в 16,6 миллисекунды. Как только пройдёт отведённое время, движок пойдёт обновлять интерфейс, даже если в очереди остались задачи. К ним он вернётся на следующем витке цикла событий.&lt;/span&gt;" style="text;html=1;strokeColor=none;fillColor=none;align=left;verticalAlign=middle;whiteSpace=wrap;rounded=0;labelBackgroundColor=none;fontSize=10;fontColor=#FFFFFF;" parent="10" vertex="1"><mxGeometry x="60" y="50" width="370" height="30" as="geometry"/></mxCell><mxCell id="12" style="edgeStyle=none;html=1;exitX=0.5;exitY=1;exitDx=0;exitDy=0;entryX=0.767;entryY=0;entryDx=0;entryDy=0;entryPerimeter=0;" parent="1" source="11" target="10" edge="1"><mxGeometry relative="1" as="geometry"/></mxCell><mxCell id="11" value="WEB API or&lt;br&gt;LibUV" style="swimlane;whiteSpace=wrap;html=1;startSize=40;" parent="1" vertex="1"><mxGeometry x="600" y="160" width="200" height="120" as="geometry"/></mxCell><mxCell id="20" style="edgeStyle=none;html=1;exitX=1;exitY=0.25;exitDx=0;exitDy=0;entryX=0;entryY=0.5;entryDx=0;entryDy=0;fontSize=12;fontColor=#FFFFFF;" parent="1" source="7" target="11" edge="1"><mxGeometry relative="1" as="geometry"/></mxCell><mxCell id="35" style="edgeStyle=orthogonalEdgeStyle;rounded=0;orthogonalLoop=1;jettySize=auto;html=1;exitX=0;exitY=0.5;exitDx=0;exitDy=0;" edge="1" parent="1" source="14"><mxGeometry relative="1" as="geometry"><mxPoint x="330" y="490" as="targetPoint"/></mxGeometry></mxCell><mxCell id="14" value="Микрозадачи" style="swimlane;whiteSpace=wrap;html=1;startSize=30;" parent="1" vertex="1"><mxGeometry x="370" y="430" width="430" height="120" as="geometry"/></mxCell><mxCell id="16" value="1" style="text;html=1;strokeColor=none;fillColor=none;align=center;verticalAlign=middle;whiteSpace=wrap;rounded=0;" parent="14" vertex="1"><mxGeometry y="30" width="60" height="30" as="geometry"/></mxCell><mxCell id="15" value="Promis, asinc" style="text;html=1;strokeColor=none;fillColor=none;align=center;verticalAlign=middle;whiteSpace=wrap;rounded=0;" parent="14" vertex="1"><mxGeometry x="60" y="30" width="110" height="30" as="geometry"/></mxCell><mxCell id="18" value="&lt;font color=&quot;#ffffff&quot; style=&quot;&quot;&gt;&lt;span style=&quot;transition: opacity 0.2s ease-in-out 0s, color 0.2s ease-in-out 0s, text-decoration 0.2s ease-in-out 0s, background-color 0.2s ease-in-out 0s, -webkit-text-decoration 0.2s ease-in-out 0s; quotes: &amp;quot;«&amp;quot; &amp;quot;»&amp;quot;; -webkit-font-smoothing: antialiased; font-family: -apple-system, BlinkMacSystemFont, Arial, sans-serif;&quot;&gt;&lt;font style=&quot;font-size: 12px;&quot;&gt;&lt;b&gt;Очередь микрозадач&lt;/b&gt;&lt;/font&gt;&lt;/span&gt;&lt;span style=&quot;font-size: 10px; font-family: -apple-system, BlinkMacSystemFont, Arial, sans-serif;&quot;&gt;&amp;nbsp;— это самая приоритетная очередь, с неё начинается выполнение кода. Работа браузера с этой очередью продолжается до тех пор, пока в ней есть задачи, сколько бы времени это ни заняло.&lt;/span&gt;&lt;/font&gt;" style="text;html=1;strokeColor=#000000;fillColor=none;align=left;verticalAlign=middle;whiteSpace=wrap;rounded=0;" parent="14" vertex="1"><mxGeometry x="50" y="70" width="370" height="40" as="geometry"/></mxCell><mxCell id="41" style="edgeStyle=orthogonalEdgeStyle;rounded=0;orthogonalLoop=1;jettySize=auto;html=1;exitX=1;exitY=0.5;exitDx=0;exitDy=0;entryX=0;entryY=0.5;entryDx=0;entryDy=0;" edge="1" parent="1" source="37" target="38"><mxGeometry relative="1" as="geometry"/></mxCell><mxCell id="37" value="JavaScript code" style="rounded=0;whiteSpace=wrap;html=1;" vertex="1" parent="1"><mxGeometry x="40" y="20" width="120" height="60" as="geometry"/></mxCell><mxCell id="69" style="edgeStyle=orthogonalEdgeStyle;rounded=0;orthogonalLoop=1;jettySize=auto;html=1;exitX=0.5;exitY=0;exitDx=0;exitDy=0;entryX=0.5;entryY=0;entryDx=0;entryDy=0;" edge="1" parent="1" source="38" target="52"><mxGeometry relative="1" as="geometry"><Array as="points"><mxPoint x="335" y="-10"/><mxPoint x="20" y="-10"/><mxPoint x="20" y="-400"/><mxPoint x="280" y="-400"/></Array></mxGeometry></mxCell><mxCell id="94" style="edgeStyle=orthogonalEdgeStyle;rounded=0;orthogonalLoop=1;jettySize=auto;html=1;exitX=1;exitY=0.5;exitDx=0;exitDy=0;entryX=0;entryY=0.5;entryDx=0;entryDy=0;" edge="1" parent="1" source="38" target="39"><mxGeometry relative="1" as="geometry"/></mxCell><mxCell id="38" value="AST&lt;br&gt;абстрактное синтаксическое дерево" style="rounded=0;whiteSpace=wrap;html=1;" vertex="1" parent="1"><mxGeometry x="250" y="20" width="170" height="60" as="geometry"/></mxCell><mxCell id="97" style="edgeStyle=orthogonalEdgeStyle;rounded=0;orthogonalLoop=1;jettySize=auto;html=1;exitX=1;exitY=0.5;exitDx=0;exitDy=0;entryX=0;entryY=0.5;entryDx=0;entryDy=0;" edge="1" parent="1" source="39" target="96"><mxGeometry relative="1" as="geometry"/></mxCell><mxCell id="39" value="Byte code" style="rounded=0;whiteSpace=wrap;html=1;" vertex="1" parent="1"><mxGeometry x="550" y="20" width="120" height="60" as="geometry"/></mxCell><mxCell id="40" value="Не оптимизированный&lt;br&gt;Машинны код" style="rounded=0;whiteSpace=wrap;html=1;" vertex="1" parent="1"><mxGeometry x="750" y="-220" width="120" height="60" as="geometry"/></mxCell><mxCell id="44" value="a" style="rounded=0;whiteSpace=wrap;html=1;" vertex="1" parent="1"><mxGeometry x="40" y="-80" width="40" height="40" as="geometry"/></mxCell><mxCell id="45" value="5" style="rounded=0;whiteSpace=wrap;html=1;" vertex="1" parent="1"><mxGeometry x="120" y="-80" width="40" height="40" as="geometry"/></mxCell><mxCell id="60" style="edgeStyle=orthogonalEdgeStyle;rounded=0;orthogonalLoop=1;jettySize=auto;html=1;exitX=0;exitY=0.5;exitDx=0;exitDy=0;entryX=0.5;entryY=0;entryDx=0;entryDy=0;" edge="1" parent="1" source="46" target="44"><mxGeometry relative="1" as="geometry"/></mxCell><mxCell id="61" style="edgeStyle=orthogonalEdgeStyle;rounded=0;orthogonalLoop=1;jettySize=auto;html=1;exitX=1;exitY=0.5;exitDx=0;exitDy=0;entryX=0.5;entryY=0;entryDx=0;entryDy=0;" edge="1" parent="1" source="46" target="45"><mxGeometry relative="1" as="geometry"/></mxCell><mxCell id="46" value="+=" style="rounded=0;whiteSpace=wrap;html=1;" vertex="1" parent="1"><mxGeometry x="80" y="-140" width="40" height="40" as="geometry"/></mxCell><mxCell id="59" style="edgeStyle=orthogonalEdgeStyle;rounded=0;orthogonalLoop=1;jettySize=auto;html=1;exitX=0.5;exitY=1;exitDx=0;exitDy=0;entryX=0.5;entryY=0;entryDx=0;entryDy=0;" edge="1" parent="1" source="47" target="46"><mxGeometry relative="1" as="geometry"/></mxCell><mxCell id="47" value="Expression statement" style="rounded=0;whiteSpace=wrap;html=1;" vertex="1" parent="1"><mxGeometry x="40" y="-200" width="120" height="40" as="geometry"/></mxCell><mxCell id="67" style="edgeStyle=orthogonalEdgeStyle;rounded=0;orthogonalLoop=1;jettySize=auto;html=1;exitX=0.5;exitY=1;exitDx=0;exitDy=0;entryX=0.5;entryY=0;entryDx=0;entryDy=0;" edge="1" parent="1" source="48" target="66"><mxGeometry relative="1" as="geometry"/></mxCell><mxCell id="48" value="Return statement" style="rounded=0;whiteSpace=wrap;html=1;" vertex="1" parent="1"><mxGeometry x="200" y="-200" width="120" height="40" as="geometry"/></mxCell><mxCell id="57" style="edgeStyle=orthogonalEdgeStyle;rounded=0;orthogonalLoop=1;jettySize=auto;html=1;exitX=0;exitY=0.5;exitDx=0;exitDy=0;entryX=0.5;entryY=0;entryDx=0;entryDy=0;" edge="1" parent="1" source="49" target="47"><mxGeometry relative="1" as="geometry"/></mxCell><mxCell id="58" style="edgeStyle=orthogonalEdgeStyle;rounded=0;orthogonalLoop=1;jettySize=auto;html=1;exitX=1;exitY=0.5;exitDx=0;exitDy=0;entryX=0.5;entryY=0;entryDx=0;entryDy=0;" edge="1" parent="1" source="49" target="48"><mxGeometry relative="1" as="geometry"/></mxCell><mxCell id="49" value="Block statement" style="rounded=0;whiteSpace=wrap;html=1;" vertex="1" parent="1"><mxGeometry x="120" y="-260" width="120" height="40" as="geometry"/></mxCell><mxCell id="56" style="edgeStyle=orthogonalEdgeStyle;rounded=0;orthogonalLoop=1;jettySize=auto;html=1;exitX=0.5;exitY=1;exitDx=0;exitDy=0;entryX=0.5;entryY=0;entryDx=0;entryDy=0;" edge="1" parent="1" source="50" target="49"><mxGeometry relative="1" as="geometry"/></mxCell><mxCell id="50" value="Function a()" style="rounded=0;whiteSpace=wrap;html=1;" vertex="1" parent="1"><mxGeometry x="120" y="-320" width="120" height="40" as="geometry"/></mxCell><mxCell id="51" value="Function b()" style="rounded=0;whiteSpace=wrap;html=1;" vertex="1" parent="1"><mxGeometry x="320" y="-320" width="120" height="40" as="geometry"/></mxCell><mxCell id="54" style="edgeStyle=orthogonalEdgeStyle;rounded=0;orthogonalLoop=1;jettySize=auto;html=1;exitX=0;exitY=0.5;exitDx=0;exitDy=0;entryX=0.5;entryY=0;entryDx=0;entryDy=0;" edge="1" parent="1" source="52" target="50"><mxGeometry relative="1" as="geometry"/></mxCell><mxCell id="55" style="edgeStyle=orthogonalEdgeStyle;rounded=0;orthogonalLoop=1;jettySize=auto;html=1;exitX=1;exitY=0.5;exitDx=0;exitDy=0;entryX=0.5;entryY=0;entryDx=0;entryDy=0;" edge="1" parent="1" source="52" target="51"><mxGeometry relative="1" as="geometry"/></mxCell><mxCell id="52" value="Program" style="rounded=0;whiteSpace=wrap;html=1;" vertex="1" parent="1"><mxGeometry x="220" y="-380" width="120" height="40" as="geometry"/></mxCell><mxCell id="62" value="a" style="rounded=0;whiteSpace=wrap;html=1;" vertex="1" parent="1"><mxGeometry x="200" y="-80" width="40" height="40" as="geometry"/></mxCell><mxCell id="63" value="10" style="rounded=0;whiteSpace=wrap;html=1;" vertex="1" parent="1"><mxGeometry x="280" y="-80" width="40" height="40" as="geometry"/></mxCell><mxCell id="64" style="edgeStyle=orthogonalEdgeStyle;rounded=0;orthogonalLoop=1;jettySize=auto;html=1;exitX=0;exitY=0.5;exitDx=0;exitDy=0;entryX=0.5;entryY=0;entryDx=0;entryDy=0;" edge="1" parent="1" source="66" target="62"><mxGeometry relative="1" as="geometry"/></mxCell><mxCell id="65" style="edgeStyle=orthogonalEdgeStyle;rounded=0;orthogonalLoop=1;jettySize=auto;html=1;exitX=1;exitY=0.5;exitDx=0;exitDy=0;entryX=0.5;entryY=0;entryDx=0;entryDy=0;" edge="1" parent="1" source="66" target="63"><mxGeometry relative="1" as="geometry"/></mxCell><mxCell id="66" value="*=" style="rounded=0;whiteSpace=wrap;html=1;" vertex="1" parent="1"><mxGeometry x="240" y="-140" width="40" height="40" as="geometry"/></mxCell><mxCell id="95" value="Ignition&lt;br&gt;интерпритатор" style="text;html=1;strokeColor=none;fillColor=none;align=center;verticalAlign=middle;whiteSpace=wrap;rounded=0;" vertex="1" parent="1"><mxGeometry x="440" y="20" width="100" height="30" as="geometry"/></mxCell><mxCell id="100" style="edgeStyle=orthogonalEdgeStyle;rounded=0;orthogonalLoop=1;jettySize=auto;html=1;exitX=1;exitY=0.5;exitDx=0;exitDy=0;entryX=0.5;entryY=1;entryDx=0;entryDy=0;" edge="1" parent="1" source="96" target="98"><mxGeometry relative="1" as="geometry"><mxPoint x="1020" y="-50" as="targetPoint"/><Array as="points"><mxPoint x="1070" y="50"/></Array></mxGeometry></mxCell><mxCell id="103" style="edgeStyle=orthogonalEdgeStyle;rounded=0;orthogonalLoop=1;jettySize=auto;html=1;exitX=0.5;exitY=0;exitDx=0;exitDy=0;entryX=0.5;entryY=1;entryDx=0;entryDy=0;" edge="1" parent="1" source="96" target="99"><mxGeometry relative="1" as="geometry"/></mxCell><mxCell id="96" value="может оптимизировать?" style="rhombus;whiteSpace=wrap;html=1;" vertex="1" parent="1"><mxGeometry x="720" y="-15" width="180" height="130" as="geometry"/></mxCell><mxCell id="105" style="edgeStyle=orthogonalEdgeStyle;rounded=0;orthogonalLoop=1;jettySize=auto;html=1;exitX=0.5;exitY=0;exitDx=0;exitDy=0;entryX=0.5;entryY=1;entryDx=0;entryDy=0;" edge="1" parent="1" source="98" target="104"><mxGeometry relative="1" as="geometry"/></mxCell><mxCell id="98" value="Turbofan&lt;br&gt;компилятор" style="rounded=0;whiteSpace=wrap;html=1;" vertex="1" parent="1"><mxGeometry x="1010" y="-120" width="120" height="60" as="geometry"/></mxCell><mxCell id="106" style="edgeStyle=orthogonalEdgeStyle;rounded=0;orthogonalLoop=1;jettySize=auto;html=1;exitX=0.5;exitY=0;exitDx=0;exitDy=0;entryX=0.5;entryY=1;entryDx=0;entryDy=0;" edge="1" parent="1" source="99" target="40"><mxGeometry relative="1" as="geometry"/></mxCell><mxCell id="99" value="Sparkplug&lt;br&gt;компилятор" style="rounded=0;whiteSpace=wrap;html=1;" vertex="1" parent="1"><mxGeometry x="750" y="-120" width="120" height="60" as="geometry"/></mxCell><mxCell id="101" value="Да" style="text;html=1;strokeColor=none;fillColor=none;align=center;verticalAlign=middle;whiteSpace=wrap;rounded=0;" vertex="1" parent="1"><mxGeometry x="970" y="20" width="60" height="30" as="geometry"/></mxCell><mxCell id="102" value="Нет" style="text;html=1;strokeColor=none;fillColor=none;align=center;verticalAlign=middle;whiteSpace=wrap;rounded=0;" vertex="1" parent="1"><mxGeometry x="810" y="-50" width="60" height="30" as="geometry"/></mxCell><mxCell id="104" value="Оптимизированный&lt;br&gt;Машинны код" style="rounded=0;whiteSpace=wrap;html=1;" vertex="1" parent="1"><mxGeometry x="1010" y="-220" width="120" height="60" as="geometry"/></mxCell><mxCell id="107" value="Парсер" style="text;html=1;strokeColor=none;fillColor=none;align=center;verticalAlign=middle;whiteSpace=wrap;rounded=0;" vertex="1" parent="1"><mxGeometry x="170" y="20" width="60" height="30" as="geometry"/></mxCell><mxCell id="108" value="Пример абстрактного синтаксического дерева" style="text;html=1;strokeColor=none;fillColor=none;align=center;verticalAlign=middle;whiteSpace=wrap;rounded=0;" vertex="1" parent="1"><mxGeometry x="20" y="-430" width="260" height="30" as="geometry"/></mxCell><mxCell id="112" value="Деоптимизация" style="endArrow=classic;html=1;rounded=0;exitX=0;exitY=0.5;exitDx=0;exitDy=0;entryX=1;entryY=0.5;entryDx=0;entryDy=0;" edge="1" parent="1" source="98" target="99"><mxGeometry relative="1" as="geometry"><mxPoint x="530" y="-110" as="sourcePoint"/><mxPoint x="630" y="-110" as="targetPoint"/></mxGeometry></mxCell></root></mxGraphModel></diagram></mxfile>